<?xml version="1.0" encoding="UTF-8" standalone="no"?>
<!DOCTYPE svg PUBLIC "-//W3C//DTD SVG 1.1//EN"
 "http://www.w3.org/Graphics/SVG/1.1/DTD/svg11.dtd">
<!-- Generated by graphviz version 14.1.4 (20260321.0153)
 -->
<!-- Title: architecture Pages: 1 -->
<svg width="975pt" height="218pt"
 viewBox="0.00 0.00 975.00 218.00" xmlns="http://www.w3.org/2000/svg" xmlns:xlink="http://www.w3.org/1999/xlink">
<g id="graph0" class="graph" transform="scale(1 1) rotate(0) translate(4 214.48)">
<title>architecture</title>
<polygon fill="white" stroke="none" points="-4,4 -4,-214.48 970.62,-214.48 970.62,4 -4,4"/>
<text xml:space="preserve" text-anchor="middle" x="483.31" y="-193.18" font-family="Helvetica,sans-Serif" font-size="14.00">Neo4j backup/restore — execution surface (instances are agentless)</text>
<g id="clust1" class="cluster">
<title>cluster_neo4j</title>
<polygon fill="none" stroke="#3366cc" stroke-dasharray="5,2" points="319.62,-34.48 319.62,-163.48 707.62,-163.48 707.62,-34.48 319.62,-34.48"/>
<text xml:space="preserve" text-anchor="middle" x="513.62" y="-146.18" font-family="Helvetica,sans-Serif" font-size="14.00">Neo4j Enterprise (agentless: serves Bolt 7687 + backup 6362)</text>
</g>
<g id="clust2" class="cluster">
<title>cluster_runner</title>
<polygon fill="none" stroke="#cc6600" stroke-dasharray="5,2" points="7.88,-14.48 7.88,-143.48 165.62,-143.48 165.62,-14.48 7.88,-14.48"/>
<text xml:space="preserve" text-anchor="middle" x="86.75" y="-126.18" font-family="Helvetica,sans-Serif" font-size="14.00">Dagster worker / runner</text>
</g>
<!-- apps -->
<g id="node1" class="node">
<title>apps</title>
<path fill="none" stroke="black" d="M108.88,-187.48C108.88,-187.48 63.62,-187.48 63.62,-187.48 57.62,-187.48 51.62,-181.48 51.62,-175.48 51.62,-175.48 51.62,-163.48 51.62,-163.48 51.62,-157.48 57.62,-151.48 63.62,-151.48 63.62,-151.48 108.88,-151.48 108.88,-151.48 114.88,-151.48 120.88,-157.48 120.88,-163.48 120.88,-163.48 120.88,-175.48 120.88,-175.48 120.88,-181.48 114.88,-187.48 108.88,-187.48"/>
<text xml:space="preserve" text-anchor="middle" x="86.25" y="-165.6" font-family="Helvetica,sans-Serif" font-size="10.00">Applications</text>
</g>
<!-- primary -->
<g id="node2" class="node">
<title>primary</title>
<polygon fill="#dbe5ff" stroke="black" points="540.12,-132.48 486.12,-132.48 486.12,-96.48 540.12,-96.48 540.12,-132.48"/>
<text xml:space="preserve" text-anchor="middle" x="513.12" y="-116.23" font-family="Helvetica,sans-Serif" font-size="10.00">primary</text>
<text xml:space="preserve" text-anchor="middle" x="513.12" y="-104.98" font-family="Helvetica,sans-Serif" font-size="10.00">(writer)</text>
</g>
<!-- apps&#45;&gt;primary -->
<g id="edge1" class="edge">
<title>apps&#45;&gt;primary</title>
<path fill="none" stroke="black" d="M121.3,-165.07C199.75,-154.91 392.76,-129.93 474.53,-119.34"/>
<polygon fill="black" stroke="black" points="474.8,-122.84 484.26,-118.08 473.9,-115.89 474.8,-122.84"/>
<text xml:space="preserve" text-anchor="middle" x="238.62" y="-168.55" font-family="Helvetica,sans-Serif" font-size="9.00">Bolt via ALIAS</text>
<text xml:space="preserve" text-anchor="middle" x="238.62" y="-158.8" font-family="Helvetica,sans-Serif" font-size="9.00">(read/write)</text>
</g>
<!-- store -->
<g id="node6" class="node">
<title>store</title>
<path fill="#e7f5e7" stroke="black" d="M966.62,-77.63C966.62,-79.73 933.96,-81.44 893.75,-81.44 853.54,-81.44 820.88,-79.73 820.88,-77.63 820.88,-77.63 820.88,-43.32 820.88,-43.32 820.88,-41.22 853.54,-39.51 893.75,-39.51 933.96,-39.51 966.62,-41.22 966.62,-43.32 966.62,-43.32 966.62,-77.63 966.62,-77.63"/>
<path fill="none" stroke="black" d="M966.62,-77.63C966.62,-75.53 933.96,-73.82 893.75,-73.82 853.54,-73.82 820.88,-75.53 820.88,-77.63"/>
<text xml:space="preserve" text-anchor="middle" x="893.75" y="-62.23" font-family="Helvetica,sans-Serif" font-size="10.00">Object store</text>
<text xml:space="preserve" text-anchor="middle" x="893.75" y="-50.98" font-family="Helvetica,sans-Serif" font-size="10.00">(per&#45;group bucket, SSE&#45;KMS)</text>
</g>
<!-- primary&#45;&gt;store -->
<g id="edge5" class="edge">
<title>primary&#45;&gt;store</title>
<path fill="none" stroke="#3366cc" stroke-dasharray="5,2" d="M540.42,-110.98C591.19,-104.21 706.24,-88.69 802.88,-74.48 805.04,-74.16 807.24,-73.83 809.46,-73.5"/>
<polygon fill="#3366cc" stroke="#3366cc" points="809.79,-76.99 819.16,-72.04 808.75,-70.07 809.79,-76.99"/>
<text xml:space="preserve" text-anchor="middle" x="764.25" y="-85.94" font-family="Helvetica,sans-Serif" font-size="9.00">seed&#45;from&#45;URI pull</text>
</g>
<!-- secondary -->
<g id="node3" class="node">
<title>secondary</title>
<polygon fill="#dbe5ff" stroke="black" points="546.62,-78.48 479.62,-78.48 479.62,-42.48 546.62,-42.48 546.62,-78.48"/>
<text xml:space="preserve" text-anchor="middle" x="513.12" y="-62.23" font-family="Helvetica,sans-Serif" font-size="10.00">secondary /</text>
<text xml:space="preserve" text-anchor="middle" x="513.12" y="-50.98" font-family="Helvetica,sans-Serif" font-size="10.00">follower</text>
</g>
<!-- secondary&#45;&gt;store -->
<g id="edge6" class="edge">
<title>secondary&#45;&gt;store</title>
<path fill="none" stroke="#3366cc" stroke-dasharray="5,2" d="M547.06,-60.48C604.97,-60.48 726.68,-60.48 809.09,-60.48"/>
<polygon fill="#3366cc" stroke="#3366cc" points="808.94,-63.98 818.94,-60.48 808.94,-56.98 808.94,-63.98"/>
<text xml:space="preserve" text-anchor="middle" x="764.25" y="-61.68" font-family="Helvetica,sans-Serif" font-size="9.00">seed&#45;from&#45;URI pull</text>
</g>
<!-- dagster -->
<g id="node4" class="node">
<title>dagster</title>
<path fill="none" stroke="black" d="M113.38,-112.48C113.38,-112.48 59.12,-112.48 59.12,-112.48 53.12,-112.48 47.12,-106.48 47.12,-100.48 47.12,-100.48 47.12,-88.48 47.12,-88.48 47.12,-82.48 53.12,-76.48 59.12,-76.48 59.12,-76.48 113.38,-76.48 113.38,-76.48 119.38,-76.48 125.38,-82.48 125.38,-88.48 125.38,-88.48 125.38,-100.48 125.38,-100.48 125.38,-106.48 119.38,-112.48 113.38,-112.48"/>
<text xml:space="preserve" text-anchor="middle" x="86.25" y="-96.23" font-family="Helvetica,sans-Serif" font-size="10.00">Dagster</text>
<text xml:space="preserve" text-anchor="middle" x="86.25" y="-84.98" font-family="Helvetica,sans-Serif" font-size="10.00">(orchestration)</text>
</g>
<!-- dagster&#45;&gt;primary -->
<g id="edge4" class="edge">
<title>dagster&#45;&gt;primary</title>
<path fill="none" stroke="#3366cc" stroke-width="2" d="M125.7,-96.29C206.8,-100.1 394.44,-108.94 474.66,-112.71"/>
<polygon fill="#3366cc" stroke="#3366cc" stroke-width="2" points="472.51,-116.11 482.66,-113.09 472.84,-109.12 472.51,-116.11"/>
<text xml:space="preserve" text-anchor="middle" x="238.62" y="-115.43" font-family="Helvetica,sans-Serif" font-size="9.00">Cypher (system db):</text>
<text xml:space="preserve" text-anchor="middle" x="238.62" y="-105.68" font-family="Helvetica,sans-Serif" font-size="9.00">seed&#45;from&#45;URI + ALTER ALIAS</text>
</g>
<!-- admin -->
<g id="node5" class="node">
<title>admin</title>
<polygon fill="none" stroke="black" points="156.5,-58.48 16,-58.48 16,-22.48 156.5,-22.48 156.5,-58.48"/>
<text xml:space="preserve" text-anchor="middle" x="86.25" y="-42.23" font-family="Helvetica,sans-Serif" font-size="10.00">neo4j&#45;admin</text>
<text xml:space="preserve" text-anchor="middle" x="86.25" y="-30.98" font-family="Helvetica,sans-Serif" font-size="10.00">(backup / aggregate / check)</text>
</g>
<!-- admin&#45;&gt;secondary -->
<g id="edge2" class="edge">
<title>admin&#45;&gt;secondary</title>
<path fill="none" stroke="#cc6600" d="M156.93,-43.76C245.09,-47.91 394.29,-54.93 468.09,-58.4"/>
<polygon fill="#cc6600" stroke="#cc6600" points="467.6,-61.88 477.75,-58.86 467.93,-54.89 467.6,-61.88"/>
<text xml:space="preserve" text-anchor="middle" x="238.62" y="-61.43" font-family="Helvetica,sans-Serif" font-size="9.00">backup pull :6362</text>
<text xml:space="preserve" text-anchor="middle" x="238.62" y="-51.68" font-family="Helvetica,sans-Serif" font-size="9.00">(secondary preferred)</text>
</g>
<!-- admin&#45;&gt;store -->
<g id="edge3" class="edge">
<title>admin&#45;&gt;store</title>
<path fill="none" stroke="#cc6600" d="M156.9,-29.14C272.03,-12.19 509.05,15.12 707.62,-10.98 746.02,-16.02 787.77,-26.71 821.89,-36.87"/>
<polygon fill="#cc6600" stroke="#cc6600" points="820.66,-40.15 831.24,-39.7 822.69,-33.45 820.66,-40.15"/>
<text xml:space="preserve" text-anchor="middle" x="513.12" y="-21.93" font-family="Helvetica,sans-Serif" font-size="9.00">write artifact</text>
<text xml:space="preserve" text-anchor="middle" x="513.12" y="-12.18" font-family="Helvetica,sans-Serif" font-size="9.00">(stage&#45;&gt;upload, SSE&#45;KMS)</text>
</g>
</g>
</svg>
