<?xml version="1.0" encoding="UTF-8" standalone="no"?>
<!DOCTYPE svg PUBLIC "-//W3C//DTD SVG 1.1//EN"
 "http://www.w3.org/Graphics/SVG/1.1/DTD/svg11.dtd">
<!-- Generated by graphviz version 14.1.4 (20260321.0153)
 -->
<!-- Title: pipeline Pages: 1 -->
<svg width="1286pt" height="338pt"
 viewBox="0.00 0.00 1286.00 338.00" xmlns="http://www.w3.org/2000/svg" xmlns:xlink="http://www.w3.org/1999/xlink">
<g id="graph0" class="graph" transform="scale(1 1) rotate(0) translate(4 334)">
<title>pipeline</title>
<polygon fill="white" stroke="none" points="-4,4 -4,-334 1281.5,-334 1281.5,4 -4,4"/>
<text xml:space="preserve" text-anchor="middle" x="638.75" y="-312.7" font-family="Helvetica,sans-Serif" font-size="14.00">Dagster code location (neo4j_backup_dagster)</text>
<g id="clust1" class="cluster">
<title>cluster_sched</title>
<polygon fill="none" stroke="#cc6600" stroke-dasharray="5,2" points="425.5,-62 425.5,-191 647.75,-191 647.75,-62 425.5,-62"/>
<text xml:space="preserve" text-anchor="middle" x="536.62" y="-173.7" font-family="Helvetica,sans-Serif" font-size="14.00">tier schedules (independent lanes)</text>
</g>
<g id="clust2" class="cluster">
<title>cluster_assets</title>
<polygon fill="none" stroke="#3366cc" stroke-dasharray="5,2" points="758.5,-8 758.5,-299 1131.5,-299 1131.5,-8 758.5,-8"/>
<text xml:space="preserve" text-anchor="middle" x="945" y="-281.7" font-family="Helvetica,sans-Serif" font-size="14.00">assets / jobs (Pipes &#45;&gt; neo4j&#45;admin; pool=neo4j on backup)</text>
</g>
<!-- policy -->
<g id="node1" class="node">
<title>policy</title>
<polygon fill="#fff3cc" stroke="black" points="103.75,-162.88 0,-162.88 0,-121.12 109.75,-121.12 109.75,-156.88 103.75,-162.88"/>
<polyline fill="none" stroke="black" points="103.75,-162.88 103.75,-156.88"/>
<polyline fill="none" stroke="black" points="109.75,-156.88 103.75,-156.88"/>
<text xml:space="preserve" text-anchor="middle" x="54.88" y="-149.38" font-family="Helvetica,sans-Serif" font-size="10.00">policy (YAML)</text>
<text xml:space="preserve" text-anchor="middle" x="54.88" y="-138.12" font-family="Helvetica,sans-Serif" font-size="10.00">groups, aliases, tiers,</text>
<text xml:space="preserve" text-anchor="middle" x="54.88" y="-126.88" font-family="Helvetica,sans-Serif" font-size="10.00">retention, encryption</text>
</g>
<!-- sensor -->
<g id="node2" class="node">
<title>sensor</title>
<polygon fill="#e7f5e7" stroke="black" points="348.75,-220 146.75,-220 146.75,-184 348.75,-184 348.75,-220"/>
<text xml:space="preserve" text-anchor="middle" x="247.75" y="-203.75" font-family="Helvetica,sans-Serif" font-size="10.00">reconcile sensor</text>
<text xml:space="preserve" text-anchor="middle" x="247.75" y="-192.5" font-family="Helvetica,sans-Serif" font-size="10.00">(policy vs SHOW DATABASES/ALIASES)</text>
</g>
<!-- policy&#45;&gt;sensor -->
<g id="edge1" class="edge">
<title>policy&#45;&gt;sensor</title>
<path fill="none" stroke="black" d="M110.06,-159.03C130.99,-165.61 155.21,-173.22 177.38,-180.19"/>
<polygon fill="black" stroke="black" points="176.05,-183.44 186.64,-183.1 178.15,-176.77 176.05,-183.44"/>
</g>
<!-- full -->
<g id="node4" class="node">
<title>full</title>
<polygon fill="none" stroke="black" points="598.5,-160 473.75,-160 473.75,-124 598.5,-124 598.5,-160"/>
<text xml:space="preserve" text-anchor="middle" x="536.12" y="-143.75" font-family="Helvetica,sans-Serif" font-size="10.00">full lane</text>
<text xml:space="preserve" text-anchor="middle" x="536.12" y="-132.5" font-family="Helvetica,sans-Serif" font-size="10.00">backup_kind=full (limit 1)</text>
</g>
<!-- policy&#45;&gt;full -->
<g id="edge3" class="edge">
<title>policy&#45;&gt;full</title>
<path fill="none" stroke="black" stroke-dasharray="1,5" d="M109.92,-142C196.13,-142 364.93,-142 461.9,-142"/>
<polygon fill="black" stroke="black" points="461.85,-145.5 471.85,-142 461.85,-138.5 461.85,-145.5"/>
</g>
<!-- diff -->
<g id="node5" class="node">
<title>diff</title>
<polygon fill="none" stroke="black" points="598.88,-106 473.38,-106 473.38,-70 598.88,-70 598.88,-106"/>
<text xml:space="preserve" text-anchor="middle" x="536.12" y="-89.75" font-family="Helvetica,sans-Serif" font-size="10.00">diff lane</text>
<text xml:space="preserve" text-anchor="middle" x="536.12" y="-78.5" font-family="Helvetica,sans-Serif" font-size="10.00">backup_kind=diff (limit 6)</text>
</g>
<!-- policy&#45;&gt;diff -->
<g id="edge4" class="edge">
<title>policy&#45;&gt;diff</title>
<path fill="none" stroke="black" stroke-dasharray="1,5" d="M109.92,-135.91C196.1,-126.2 364.81,-107.19 461.8,-96.26"/>
<polygon fill="black" stroke="black" points="461.93,-99.77 471.47,-95.17 461.14,-92.81 461.93,-99.77"/>
</g>
<!-- parts -->
<g id="node3" class="node">
<title>parts</title>
<path fill="#f0f0f0" stroke="black" d="M571.88,-235C571.88,-235 500.38,-235 500.38,-235 494.38,-235 488.38,-229 488.38,-223 488.38,-223 488.38,-211 488.38,-211 488.38,-205 494.38,-199 500.38,-199 500.38,-199 571.88,-199 571.88,-199 577.88,-199 583.88,-205 583.88,-211 583.88,-211 583.88,-223 583.88,-223 583.88,-229 577.88,-235 571.88,-235"/>
<text xml:space="preserve" text-anchor="middle" x="536.12" y="-218.75" font-family="Helvetica,sans-Serif" font-size="10.00">dynamic partitions</text>
<text xml:space="preserve" text-anchor="middle" x="536.12" y="-207.5" font-family="Helvetica,sans-Serif" font-size="10.00">(group, alias)</text>
</g>
<!-- sensor&#45;&gt;parts -->
<g id="edge2" class="edge">
<title>sensor&#45;&gt;parts</title>
<path fill="none" stroke="black" d="M348.91,-207.25C391.55,-209.48 439.81,-212.01 476.51,-213.93"/>
<polygon fill="black" stroke="black" points="476.32,-217.42 486.49,-214.45 476.69,-210.43 476.32,-217.42"/>
<text xml:space="preserve" text-anchor="middle" x="391.12" y="-211.6" font-family="Helvetica,sans-Serif" font-size="9.00">add/remove</text>
</g>
<!-- backup -->
<g id="node6" class="node">
<title>backup</title>
<polygon fill="#dbe5ff" stroke="black" points="1017.38,-160 871.62,-160 871.62,-124 1017.38,-124 1017.38,-160"/>
<text xml:space="preserve" text-anchor="middle" x="944.5" y="-143.75" font-family="Helvetica,sans-Serif" font-size="10.00">backup (asset)</text>
<text xml:space="preserve" text-anchor="middle" x="944.5" y="-132.5" font-family="Helvetica,sans-Serif" font-size="10.00">neo4j&#45;admin database backup</text>
</g>
<!-- parts&#45;&gt;backup -->
<g id="edge7" class="edge">
<title>parts&#45;&gt;backup</title>
<path fill="none" stroke="black" stroke-dasharray="1,5" d="M584.3,-207.99C603.95,-204.14 626.99,-199.5 647.75,-195 697.16,-184.29 708.83,-178.44 758.5,-169 791.59,-162.71 828.25,-157.09 860.15,-152.62"/>
<polygon fill="black" stroke="black" points="860.29,-156.13 869.72,-151.29 859.33,-149.2 860.29,-156.13"/>
</g>
<!-- aggregate -->
<g id="node7" class="node">
<title>aggregate</title>
<polygon fill="none" stroke="black" points="1026.38,-268 862.62,-268 862.62,-232 1026.38,-232 1026.38,-268"/>
<text xml:space="preserve" text-anchor="middle" x="944.5" y="-251.75" font-family="Helvetica,sans-Serif" font-size="10.00">aggregate (asset)</text>
<text xml:space="preserve" text-anchor="middle" x="944.5" y="-240.5" font-family="Helvetica,sans-Serif" font-size="10.00">backup aggregate (RTO/retention)</text>
</g>
<!-- parts&#45;&gt;aggregate -->
<g id="edge8" class="edge">
<title>parts&#45;&gt;aggregate</title>
<path fill="none" stroke="black" stroke-dasharray="1,5" d="M584.14,-220.82C649.16,-226.1 767.89,-235.74 851.03,-242.49"/>
<polygon fill="black" stroke="black" points="850.5,-245.96 860.75,-243.28 851.07,-238.98 850.5,-245.96"/>
</g>
<!-- verify -->
<g id="node8" class="node">
<title>verify</title>
<polygon fill="#e7f5e7" stroke="black" points="1044.38,-214 844.62,-214 844.62,-178 1044.38,-178 1044.38,-214"/>
<text xml:space="preserve" text-anchor="middle" x="944.5" y="-197.75" font-family="Helvetica,sans-Serif" font-size="10.00">verify (asset)</text>
<text xml:space="preserve" text-anchor="middle" x="944.5" y="-186.5" font-family="Helvetica,sans-Serif" font-size="10.00">copy&#45;&gt;aggregate&#45;&gt;check (non&#45;destructive)</text>
</g>
<!-- parts&#45;&gt;verify -->
<g id="edge9" class="edge">
<title>parts&#45;&gt;verify</title>
<path fill="none" stroke="black" stroke-dasharray="1,5" d="M584.14,-214.57C644.6,-211.45 751.52,-205.92 833.06,-201.71"/>
<polygon fill="black" stroke="black" points="833.07,-205.21 842.88,-201.2 832.71,-198.22 833.07,-205.21"/>
</g>
<!-- full&#45;&gt;backup -->
<g id="edge5" class="edge">
<title>full&#45;&gt;backup</title>
<path fill="none" stroke="black" d="M598.84,-142C668.58,-142 782.44,-142 860.06,-142"/>
<polygon fill="black" stroke="black" points="859.72,-145.5 869.72,-142 859.72,-138.5 859.72,-145.5"/>
<text xml:space="preserve" text-anchor="middle" x="703.12" y="-143.2" font-family="Helvetica,sans-Serif" font-size="9.00">RunRequest(partition)</text>
</g>
<!-- diff&#45;&gt;backup -->
<g id="edge6" class="edge">
<title>diff&#45;&gt;backup</title>
<path fill="none" stroke="black" d="M599.29,-96.26C669.11,-105.54 782.79,-120.64 860.25,-130.94"/>
<polygon fill="black" stroke="black" points="859.53,-134.37 869.9,-132.22 860.45,-127.43 859.53,-134.37"/>
<text xml:space="preserve" text-anchor="middle" x="703.12" y="-116.2" font-family="Helvetica,sans-Serif" font-size="9.00">RunRequest(partition)</text>
</g>
<!-- store -->
<g id="node11" class="node">
<title>store</title>
<path fill="#e7f5e7" stroke="black" d="M1277.5,-156.73C1277.5,-158.53 1262.48,-160 1244,-160 1225.52,-160 1210.5,-158.53 1210.5,-156.73 1210.5,-156.73 1210.5,-127.27 1210.5,-127.27 1210.5,-125.47 1225.52,-124 1244,-124 1262.48,-124 1277.5,-125.47 1277.5,-127.27 1277.5,-127.27 1277.5,-156.73 1277.5,-156.73"/>
<path fill="none" stroke="black" d="M1277.5,-156.73C1277.5,-154.92 1262.48,-153.45 1244,-153.45 1225.52,-153.45 1210.5,-154.92 1210.5,-156.73"/>
<text xml:space="preserve" text-anchor="middle" x="1244" y="-138.12" font-family="Helvetica,sans-Serif" font-size="10.00">object store</text>
</g>
<!-- backup&#45;&gt;store -->
<g id="edge10" class="edge">
<title>backup&#45;&gt;store</title>
<path fill="none" stroke="black" d="M1017.52,-142C1073.95,-142 1150.68,-142 1198.5,-142"/>
<polygon fill="black" stroke="black" points="1198.49,-145.5 1208.49,-142 1198.49,-138.5 1198.49,-145.5"/>
</g>
<!-- aggregate&#45;&gt;store -->
<g id="edge11" class="edge">
<title>aggregate&#45;&gt;store</title>
<path fill="none" stroke="black" d="M1026.46,-246.77C1059.94,-243.28 1098.55,-236.4 1131.5,-223 1163.31,-210.07 1194.49,-186.18 1215.75,-167.69"/>
<polygon fill="black" stroke="black" points="1217.96,-170.41 1223.1,-161.14 1213.31,-165.18 1217.96,-170.41"/>
</g>
<!-- verify&#45;&gt;store -->
<g id="edge12" class="edge">
<title>verify&#45;&gt;store</title>
<path fill="none" stroke="black" d="M1044.78,-183.61C1090.16,-177 1144.4,-167.78 1192.5,-156 1194.65,-155.47 1196.86,-154.92 1199.08,-154.35"/>
<polygon fill="black" stroke="black" points="1199.97,-157.73 1208.74,-151.79 1198.18,-150.96 1199.97,-157.73"/>
</g>
<!-- prune -->
<g id="node9" class="node">
<title>prune</title>
<polygon fill="none" stroke="black" points="995.25,-106 893.75,-106 893.75,-70 995.25,-70 995.25,-106"/>
<text xml:space="preserve" text-anchor="middle" x="944.5" y="-89.75" font-family="Helvetica,sans-Serif" font-size="10.00">prune (asset)</text>
<text xml:space="preserve" text-anchor="middle" x="944.5" y="-78.5" font-family="Helvetica,sans-Serif" font-size="10.00">age&#45;based retention</text>
</g>
<!-- prune&#45;&gt;store -->
<g id="edge13" class="edge">
<title>prune&#45;&gt;store</title>
<path fill="none" stroke="black" d="M995.45,-93.96C1033.02,-98.76 1085.69,-106.15 1131.5,-115 1153.94,-119.34 1178.67,-125.21 1199.12,-130.37"/>
<polygon fill="black" stroke="black" points="1197.98,-133.69 1208.53,-132.78 1199.71,-126.91 1197.98,-133.69"/>
</g>
<!-- restore -->
<g id="node10" class="node">
<title>restore</title>
<polygon fill="#ffe0cc" stroke="black" points="1033.5,-52 855.5,-52 855.5,-16 1033.5,-16 1033.5,-52"/>
<text xml:space="preserve" text-anchor="middle" x="944.5" y="-35.75" font-family="Helvetica,sans-Serif" font-size="10.00">restore_group (job)</text>
<text xml:space="preserve" text-anchor="middle" x="944.5" y="-24.5" font-family="Helvetica,sans-Serif" font-size="10.00">Bolt: seed&#45;from&#45;URI + ALTER ALIAS</text>
</g>
<!-- store&#45;&gt;restore -->
<g id="edge14" class="edge">
<title>store&#45;&gt;restore</title>
<path fill="none" stroke="black" d="M1224.3,-123.7C1203.5,-104.57 1168.01,-75.37 1131.5,-61 1104.43,-50.34 1073.65,-43.84 1045.03,-39.88"/>
<polygon fill="black" stroke="black" points="1045.63,-36.43 1035.26,-38.63 1044.74,-43.37 1045.63,-36.43"/>
<text xml:space="preserve" text-anchor="middle" x="1167" y="-96.06" font-family="Helvetica,sans-Serif" font-size="9.00">latest artifact</text>
</g>
</g>
</svg>
