<?xml version="1.0" encoding="UTF-8" standalone="no"?>
<!DOCTYPE svg PUBLIC "-//W3C//DTD SVG 1.1//EN"
 "http://www.w3.org/Graphics/SVG/1.1/DTD/svg11.dtd">
<!-- Generated by graphviz version 14.1.4 (20260321.0153)
 -->
<!-- Title: naming Pages: 1 -->
<svg width="622pt" height="215pt"
 viewBox="0.00 0.00 622.00 215.00" xmlns="http://www.w3.org/2000/svg" xmlns:xlink="http://www.w3.org/1999/xlink">
<g id="graph0" class="graph" transform="scale(1 1) rotate(0) translate(4 210.75)">
<title>naming</title>
<polygon fill="white" stroke="none" points="-4,4 -4,-210.75 617.5,-210.75 617.5,4 -4,4"/>
<text xml:space="preserve" text-anchor="middle" x="306.75" y="-189.45" font-family="Helvetica,sans-Serif" font-size="14.00">Naming authority (naming.sh == naming.py)</text>
<!-- alias -->
<g id="node1" class="node">
<title>alias</title>
<path fill="#ffe0cc" stroke="black" d="M127.75,-75.5C127.75,-75.5 12,-75.5 12,-75.5 6,-75.5 0,-69.5 0,-63.5 0,-63.5 0,-12 0,-12 0,-6 6,0 12,0 12,0 127.75,0 127.75,0 133.75,0 139.75,-6 139.75,-12 139.75,-12 139.75,-63.5 139.75,-63.5 139.75,-69.5 133.75,-75.5 127.75,-75.5"/>
<text xml:space="preserve" text-anchor="middle" x="69.88" y="-62" font-family="Helvetica,sans-Serif" font-size="10.00">ALIAS (app&#45;facing)</text>
<text xml:space="preserve" text-anchor="middle" x="69.88" y="-50.75" font-family="Helvetica,sans-Serif" font-size="10.00">Neo4j full alias spec:</text>
<text xml:space="preserve" text-anchor="middle" x="69.88" y="-39.5" font-family="Helvetica,sans-Serif" font-size="10.00">any chars (backtick&#45;quoted),</text>
<text xml:space="preserve" text-anchor="middle" x="69.88" y="-28.25" font-family="Helvetica,sans-Serif" font-size="10.00">&lt;= 65534, no trailing dot,</text>
<text xml:space="preserve" text-anchor="middle" x="69.88" y="-17" font-family="Helvetica,sans-Serif" font-size="10.00">no _/system prefix.</text>
<text xml:space="preserve" text-anchor="middle" x="69.88" y="-5.75" font-family="Helvetica,sans-Serif" font-size="10.00">Preserved exactly.</text>
</g>
<!-- slug -->
<g id="node2" class="node">
<title>slug</title>
<polygon fill="#fff3cc" stroke="black" points="357.5,-64.25 199,-64.25 199,-11.25 357.5,-11.25 357.5,-64.25"/>
<text xml:space="preserve" text-anchor="middle" x="278.25" y="-50.75" font-family="Helvetica,sans-Serif" font-size="10.00">SLUG (db&#45;legal, path&#45;safe)</text>
<text xml:space="preserve" text-anchor="middle" x="278.25" y="-39.5" font-family="Helvetica,sans-Serif" font-size="10.00">clean alias &#45;&gt; as&#45;is;</text>
<text xml:space="preserve" text-anchor="middle" x="278.25" y="-28.25" font-family="Helvetica,sans-Serif" font-size="10.00">messy &#45;&gt; sanitize + 8&#45;char hash</text>
<text xml:space="preserve" text-anchor="middle" x="278.25" y="-17" font-family="Helvetica,sans-Serif" font-size="10.00">(so distinct aliases never collide)</text>
</g>
<!-- alias&#45;&gt;slug -->
<g id="edge1" class="edge">
<title>alias&#45;&gt;slug</title>
<path fill="none" stroke="black" d="M140.17,-37.75C155.25,-37.75 171.41,-37.75 187.16,-37.75"/>
<polygon fill="black" stroke="black" points="187.02,-41.25 197.02,-37.75 187.02,-34.25 187.02,-41.25"/>
<text xml:space="preserve" text-anchor="middle" x="169.38" y="-38.95" font-family="Helvetica,sans-Serif" font-size="9.00">slug()</text>
</g>
<!-- phys -->
<g id="node3" class="node">
<title>phys</title>
<polygon fill="#dbe5ff" stroke="black" points="605.25,-64.25 472.25,-64.25 472.25,-11.25 605.25,-11.25 605.25,-64.25"/>
<text xml:space="preserve" text-anchor="middle" x="538.75" y="-50.75" font-family="Helvetica,sans-Serif" font-size="10.00">PHYSICAL = &lt;slug&gt;&#45;&lt;ts&gt;</text>
<text xml:space="preserve" text-anchor="middle" x="538.75" y="-39.5" font-family="Helvetica,sans-Serif" font-size="10.00">legal db name:</text>
<text xml:space="preserve" text-anchor="middle" x="538.75" y="-28.25" font-family="Helvetica,sans-Serif" font-size="10.00">[a&#45;z0&#45;9.&#45;], 3&#45;63, lowercase,</text>
<text xml:space="preserve" text-anchor="middle" x="538.75" y="-17" font-family="Helvetica,sans-Serif" font-size="10.00">no underscores</text>
</g>
<!-- slug&#45;&gt;phys -->
<g id="edge2" class="edge">
<title>slug&#45;&gt;phys</title>
<path fill="none" stroke="black" d="M357.86,-37.75C390.55,-37.75 428.37,-37.75 460.87,-37.75"/>
<polygon fill="black" stroke="black" points="460.61,-41.25 470.61,-37.75 460.61,-34.25 460.61,-41.25"/>
<text xml:space="preserve" text-anchor="middle" x="410.75" y="-48.7" font-family="Helvetica,sans-Serif" font-size="9.00">physical(alias, ts)</text>
<text xml:space="preserve" text-anchor="middle" x="410.75" y="-38.95" font-family="Helvetica,sans-Serif" font-size="9.00">+ validate_db()</text>
</g>
<!-- ex1 -->
<g id="node4" class="node">
<title>ex1</title>
<text xml:space="preserve" text-anchor="middle" x="69.88" y="-107.88" font-family="Helvetica,sans-Serif" font-size="10.00">acme&#45;orders</text>
</g>
<!-- ex2 -->
<g id="node5" class="node">
<title>ex2</title>
<text xml:space="preserve" text-anchor="middle" x="278.25" y="-107.88" font-family="Helvetica,sans-Serif" font-size="10.00">acme&#45;orders</text>
</g>
<!-- ex1&#45;&gt;ex2 -->
<!-- ex3 -->
<g id="node6" class="node">
<title>ex3</title>
<text xml:space="preserve" text-anchor="middle" x="538.75" y="-107.88" font-family="Helvetica,sans-Serif" font-size="10.00">acme&#45;orders&#45;20260629t060725</text>
</g>
<!-- ex2&#45;&gt;ex3 -->
<!-- exm1 -->
<g id="node7" class="node">
<title>exm1</title>
<text xml:space="preserve" text-anchor="middle" x="69.88" y="-161.88" font-family="Helvetica,sans-Serif" font-size="10.00">Acme_Orders.EU</text>
</g>
<!-- exm2 -->
<g id="node8" class="node">
<title>exm2</title>
<text xml:space="preserve" text-anchor="middle" x="278.25" y="-161.88" font-family="Helvetica,sans-Serif" font-size="10.00">acme&#45;orders.eu&#45;ff7f3cb5</text>
</g>
<!-- exm1&#45;&gt;exm2 -->
</g>
</svg>
