<?xml version="1.0" encoding="UTF-8" standalone="no"?>
<!DOCTYPE svg PUBLIC "-//W3C//DTD SVG 1.1//EN"
 "http://www.w3.org/Graphics/SVG/1.1/DTD/svg11.dtd">
<!-- Generated by graphviz version 14.1.4 (20260321.0153)
 -->
<!-- Title: restore Pages: 1 -->
<svg width="525pt" height="464pt"
 viewBox="0.00 0.00 525.00 464.00" xmlns="http://www.w3.org/2000/svg" xmlns:xlink="http://www.w3.org/1999/xlink">
<g id="graph0" class="graph" transform="scale(1 1) rotate(0) translate(4 460)">
<title>restore</title>
<polygon fill="white" stroke="none" points="-4,4 -4,-460 520.75,-460 520.75,4 -4,4"/>
<text xml:space="preserve" text-anchor="middle" x="258.38" y="-438.7" font-family="Helvetica,sans-Serif" font-size="14.00">Restore: seed a fresh physical, then move the alias (atomic cutover)</text>
<!-- start -->
<g id="node1" class="node">
<title>start</title>
<polygon fill="#fff3cc" stroke="black" points="446.75,-433 247.75,-433 247.75,-397 452.75,-397 452.75,-427 446.75,-433"/>
<polyline fill="none" stroke="black" points="446.75,-433 446.75,-427"/>
<polyline fill="none" stroke="black" points="452.75,-427 446.75,-427"/>
<text xml:space="preserve" text-anchor="middle" x="350.25" y="-416.75" font-family="Helvetica,sans-Serif" font-size="10.00">latest artifact for alias</text>
<text xml:space="preserve" text-anchor="middle" x="350.25" y="-405.5" font-family="Helvetica,sans-Serif" font-size="10.00">(s3://.../&lt;slug&gt;/&lt;physical&gt;/&lt;head&gt;.backup)</text>
</g>
<!-- seed -->
<g id="node2" class="node">
<title>seed</title>
<polygon fill="none" stroke="black" points="446.75,-351.25 253.75,-351.25 253.75,-309.5 446.75,-309.5 446.75,-351.25"/>
<text xml:space="preserve" text-anchor="middle" x="350.25" y="-337.75" font-family="Helvetica,sans-Serif" font-size="10.00">CREATE DATABASE `&lt;slug&gt;&#45;&lt;ts&gt;`</text>
<text xml:space="preserve" text-anchor="middle" x="350.25" y="-326.5" font-family="Helvetica,sans-Serif" font-size="10.00">OPTIONS { seedURI: &#39;...&#39;</text>
<text xml:space="preserve" text-anchor="middle" x="350.25" y="-315.25" font-family="Helvetica,sans-Serif" font-size="10.00">[, seedRestoreUntil: datetime(T)] } WAIT</text>
</g>
<!-- start&#45;&gt;seed -->
<g id="edge1" class="edge">
<title>start&#45;&gt;seed</title>
<path fill="none" stroke="black" d="M350.25,-396.88C350.25,-387.13 350.25,-374.6 350.25,-363.11"/>
<polygon fill="black" stroke="black" points="353.75,-363.2 350.25,-353.2 346.75,-363.2 353.75,-363.2"/>
<text xml:space="preserve" text-anchor="middle" x="396.38" y="-370.45" font-family="Helvetica,sans-Serif" font-size="9.00">cluster pulls seed itself</text>
</g>
<!-- verify -->
<g id="node3" class="node">
<title>verify</title>
<polygon fill="#e7f5e7" stroke="black" points="269.75,-272.5 124.75,-272.5 124.75,-236.5 269.75,-236.5 269.75,-272.5"/>
<text xml:space="preserve" text-anchor="middle" x="197.25" y="-256.25" font-family="Helvetica,sans-Serif" font-size="10.00">verify new db online</text>
<text xml:space="preserve" text-anchor="middle" x="197.25" y="-245" font-family="Helvetica,sans-Serif" font-size="10.00">(consistency check + smoke)</text>
</g>
<!-- seed&#45;&gt;verify -->
<g id="edge2" class="edge">
<title>seed&#45;&gt;verify</title>
<path fill="none" stroke="black" d="M308.44,-309.19C288.31,-299.47 264.11,-287.78 243.43,-277.8"/>
<polygon fill="black" stroke="black" points="245.18,-274.76 234.65,-273.56 242.14,-281.06 245.18,-274.76"/>
</g>
<!-- note -->
<g id="node8" class="node">
<title>note</title>
<text xml:space="preserve" text-anchor="middle" x="402.25" y="-255.7" font-family="Helvetica,sans-Serif" font-size="9.00">PITR (seedRestoreUntil) needs a differential CHAIN;</text>
<text xml:space="preserve" text-anchor="middle" x="402.25" y="-245.95" font-family="Helvetica,sans-Serif" font-size="9.00">a lone full restores fully only.</text>
</g>
<!-- seed&#45;&gt;note -->
<!-- swap -->
<g id="node4" class="node">
<title>swap</title>
<polygon fill="#dbe5ff" stroke="black" points="294.88,-190.75 99.62,-190.75 99.62,-154.75 294.88,-154.75 294.88,-190.75"/>
<text xml:space="preserve" text-anchor="middle" x="197.25" y="-174.5" font-family="Helvetica,sans-Serif" font-size="10.00">ALTER ALIAS `&lt;alias&gt;`</text>
<text xml:space="preserve" text-anchor="middle" x="197.25" y="-163.25" font-family="Helvetica,sans-Serif" font-size="10.00">SET DATABASE TARGET `&lt;slug&gt;&#45;&lt;ts&gt;`</text>
</g>
<!-- verify&#45;&gt;swap -->
<g id="edge3" class="edge">
<title>verify&#45;&gt;swap</title>
<path fill="none" stroke="black" d="M197.25,-236.2C197.25,-226.27 197.25,-213.56 197.25,-202.2"/>
<polygon fill="black" stroke="black" points="200.75,-202.53 197.25,-192.53 193.75,-202.53 200.75,-202.53"/>
<text xml:space="preserve" text-anchor="middle" x="243.75" y="-209.95" font-family="Helvetica,sans-Serif" font-size="9.00">only after verify passes</text>
</g>
<!-- done -->
<g id="node5" class="node">
<title>done</title>
<path fill="none" stroke="black" d="M182.5,-109C182.5,-109 12,-109 12,-109 6,-109 0,-103 0,-97 0,-97 0,-85 0,-85 0,-79 6,-73 12,-73 12,-73 182.5,-73 182.5,-73 188.5,-73 194.5,-79 194.5,-85 194.5,-85 194.5,-97 194.5,-97 194.5,-103 188.5,-109 182.5,-109"/>
<text xml:space="preserve" text-anchor="middle" x="97.25" y="-92.75" font-family="Helvetica,sans-Serif" font-size="10.00">apps follow the alias to the new physical</text>
<text xml:space="preserve" text-anchor="middle" x="97.25" y="-81.5" font-family="Helvetica,sans-Serif" font-size="10.00">(group&#45;aligned: same T across the group)</text>
</g>
<!-- swap&#45;&gt;done -->
<g id="edge4" class="edge">
<title>swap&#45;&gt;done</title>
<path fill="none" stroke="black" d="M175.55,-154.45C161.53,-143.26 143.08,-128.55 127.61,-116.21"/>
<polygon fill="black" stroke="black" points="130.09,-113.71 120.09,-110.21 125.73,-119.19 130.09,-113.71"/>
</g>
<!-- rollback -->
<g id="node6" class="node">
<title>rollback</title>
<polygon fill="none" stroke="#cc0000" stroke-dasharray="5,2" points="382.12,-109 212.38,-109 212.38,-73 382.12,-73 382.12,-109"/>
<text xml:space="preserve" text-anchor="middle" x="297.25" y="-92.75" font-family="Helvetica,sans-Serif" font-size="10.00">rollback:</text>
<text xml:space="preserve" text-anchor="middle" x="297.25" y="-81.5" font-family="Helvetica,sans-Serif" font-size="10.00">ALTER ALIAS &#45;&gt; previous physical</text>
</g>
<!-- swap&#45;&gt;rollback -->
<g id="edge5" class="edge">
<title>swap&#45;&gt;rollback</title>
<path fill="none" stroke="#cc0000" stroke-dasharray="5,2" d="M218.95,-154.45C232.97,-143.26 251.42,-128.55 266.89,-116.21"/>
<polygon fill="#cc0000" stroke="#cc0000" points="268.77,-119.19 274.41,-110.21 264.41,-113.71 268.77,-119.19"/>
<text xml:space="preserve" text-anchor="middle" x="272.36" y="-128.2" font-family="Helvetica,sans-Serif" font-size="9.00">if needed</text>
</g>
<!-- cleanup -->
<g id="node7" class="node">
<title>cleanup</title>
<polygon fill="none" stroke="black" stroke-dasharray="5,2" points="180.62,-36 13.88,-36 13.88,0 180.62,0 180.62,-36"/>
<text xml:space="preserve" text-anchor="middle" x="97.25" y="-19.75" font-family="Helvetica,sans-Serif" font-size="10.00">after soak:</text>
<text xml:space="preserve" text-anchor="middle" x="97.25" y="-8.5" font-family="Helvetica,sans-Serif" font-size="10.00">DROP DATABASE &lt;old physical&gt;</text>
</g>
<!-- done&#45;&gt;cleanup -->
<g id="edge6" class="edge">
<title>done&#45;&gt;cleanup</title>
<path fill="none" stroke="black" stroke-dasharray="5,2" d="M97.25,-72.81C97.25,-65.23 97.25,-56.1 97.25,-47.54"/>
<polygon fill="black" stroke="black" points="100.75,-47.54 97.25,-37.54 93.75,-47.54 100.75,-47.54"/>
</g>
</g>
</svg>
