<?xml version="1.0" encoding="UTF-8" standalone="no"?>
<!DOCTYPE svg PUBLIC "-//W3C//DTD SVG 1.1//EN"
 "http://www.w3.org/Graphics/SVG/1.1/DTD/svg11.dtd">
<!-- Generated by graphviz version 14.1.4 (20260321.0153)
 -->
<!-- Title: storage Pages: 1 -->
<svg width="528pt" height="538pt"
 viewBox="0.00 0.00 528.00 538.00" xmlns="http://www.w3.org/2000/svg" xmlns:xlink="http://www.w3.org/1999/xlink">
<g id="graph0" class="graph" transform="scale(1 1) rotate(0) translate(4 534.44)">
<title>storage</title>
<polygon fill="white" stroke="none" points="-4,4 -4,-534.44 524.25,-534.44 524.25,4 -4,4"/>
<text xml:space="preserve" text-anchor="middle" x="260.12" y="-513.14" font-family="Helvetica,sans-Serif" font-size="14.00">Storage layout — chains are per physical store</text>
<!-- bucket -->
<g id="node1" class="node">
<title>bucket</title>
<path fill="#e7f5e7" stroke="black" d="M298.75,-503.62C298.75,-505.73 252.81,-507.44 196.25,-507.44 139.69,-507.44 93.75,-505.73 93.75,-503.62 93.75,-503.62 93.75,-469.31 93.75,-469.31 93.75,-467.21 139.69,-465.5 196.25,-465.5 252.81,-465.5 298.75,-467.21 298.75,-469.31 298.75,-469.31 298.75,-503.62 298.75,-503.62"/>
<path fill="none" stroke="black" d="M298.75,-503.62C298.75,-501.52 252.81,-499.81 196.25,-499.81 139.69,-499.81 93.75,-501.52 93.75,-503.62"/>
<text xml:space="preserve" text-anchor="middle" x="196.25" y="-488.22" font-family="Helvetica,sans-Serif" font-size="10.00">bucket: neo4j&#45;backups&#45;&lt;group&gt;</text>
<text xml:space="preserve" text-anchor="middle" x="196.25" y="-476.97" font-family="Helvetica,sans-Serif" font-size="10.00">(SSE&#45;KMS default key = group&#39;s KMS key)</text>
</g>
<!-- group -->
<g id="node2" class="node">
<title>group</title>
<polygon fill="none" stroke="black" points="251.5,-428.5 141,-428.5 141,-392.5 251.5,-392.5 251.5,-428.5"/>
<text xml:space="preserve" text-anchor="middle" x="196.25" y="-406.62" font-family="Helvetica,sans-Serif" font-size="10.00">&lt;group&gt;/ &#160;(e.g. demo)</text>
</g>
<!-- bucket&#45;&gt;group -->
<g id="edge1" class="edge">
<title>bucket&#45;&gt;group</title>
<path fill="none" stroke="black" d="M196.25,-465.26C196.25,-457.46 196.25,-448.41 196.25,-439.98"/>
<polygon fill="black" stroke="black" points="199.75,-440.19 196.25,-430.19 192.75,-440.19 199.75,-440.19"/>
</g>
<!-- slug -->
<g id="node3" class="node">
<title>slug</title>
<polygon fill="none" stroke="black" points="279.25,-355.5 113.25,-355.5 113.25,-319.5 279.25,-319.5 279.25,-355.5"/>
<text xml:space="preserve" text-anchor="middle" x="196.25" y="-339.25" font-family="Helvetica,sans-Serif" font-size="10.00">&lt;slug&gt;/ &#160;(e.g. acme&#45;orders)</text>
<text xml:space="preserve" text-anchor="middle" x="196.25" y="-328" font-family="Helvetica,sans-Serif" font-size="10.00">= db&#45;legal id derived from the alias</text>
</g>
<!-- group&#45;&gt;slug -->
<g id="edge2" class="edge">
<title>group&#45;&gt;slug</title>
<path fill="none" stroke="black" d="M196.25,-392.31C196.25,-384.73 196.25,-375.6 196.25,-367.04"/>
<polygon fill="black" stroke="black" points="199.75,-367.04 196.25,-357.04 192.75,-367.04 199.75,-367.04"/>
</g>
<!-- phys1 -->
<g id="node4" class="node">
<title>phys1</title>
<polygon fill="#f0f0f0" stroke="black" points="98.5,-282.5 0,-282.5 0,-246.5 98.5,-246.5 98.5,-282.5"/>
<text xml:space="preserve" text-anchor="middle" x="49.25" y="-266.25" font-family="Helvetica,sans-Serif" font-size="10.00">&lt;physical P1&gt;/</text>
<text xml:space="preserve" text-anchor="middle" x="49.25" y="-255" font-family="Helvetica,sans-Serif" font-size="10.00">acme&#45;orders&#45;&lt;ts1&gt;</text>
</g>
<!-- slug&#45;&gt;phys1 -->
<g id="edge3" class="edge">
<title>slug&#45;&gt;phys1</title>
<path fill="none" stroke="black" d="M160.29,-319.13C140.8,-309.72 116.5,-297.98 95.61,-287.89"/>
<polygon fill="black" stroke="black" points="97.24,-284.79 86.71,-283.59 94.19,-291.09 97.24,-284.79"/>
</g>
<!-- phys2 -->
<g id="node5" class="node">
<title>phys2</title>
<polygon fill="#dbe5ff" stroke="black" points="398.75,-282.5 289.75,-282.5 289.75,-246.5 398.75,-246.5 398.75,-282.5"/>
<text xml:space="preserve" text-anchor="middle" x="344.25" y="-266.25" font-family="Helvetica,sans-Serif" font-size="10.00">&lt;physical P2&gt;/ &#160;(live)</text>
<text xml:space="preserve" text-anchor="middle" x="344.25" y="-255" font-family="Helvetica,sans-Serif" font-size="10.00">acme&#45;orders&#45;&lt;ts2&gt;</text>
</g>
<!-- slug&#45;&gt;phys2 -->
<g id="edge4" class="edge">
<title>slug&#45;&gt;phys2</title>
<path fill="none" stroke="black" d="M232.45,-319.13C252.07,-309.72 276.54,-297.98 297.58,-287.89"/>
<polygon fill="black" stroke="black" points="299.04,-291.07 306.54,-283.59 296.01,-284.76 299.04,-291.07"/>
</g>
<!-- chain1 -->
<g id="node6" class="node">
<title>chain1</title>
<polygon fill="none" stroke="black" points="74.88,-200.12 17.62,-200.12 17.62,-164.12 80.88,-164.12 80.88,-194.12 74.88,-200.12"/>
<polyline fill="none" stroke="black" points="74.88,-200.12 74.88,-194.12"/>
<polyline fill="none" stroke="black" points="80.88,-194.12 74.88,-194.12"/>
<text xml:space="preserve" text-anchor="middle" x="49.25" y="-178.25" font-family="Helvetica,sans-Serif" font-size="10.00">full.backup</text>
</g>
<!-- phys1&#45;&gt;chain1 -->
<g id="edge5" class="edge">
<title>phys1&#45;&gt;chain1</title>
<path fill="none" stroke="black" d="M49.25,-246.06C49.25,-236.05 49.25,-223.24 49.25,-211.79"/>
<polygon fill="black" stroke="black" points="52.75,-212.04 49.25,-202.04 45.75,-212.04 52.75,-212.04"/>
<text xml:space="preserve" text-anchor="middle" x="60.5" y="-219.95" font-family="Helvetica,sans-Serif" font-size="9.00">chain</text>
</g>
<!-- chain2 -->
<g id="node8" class="node">
<title>chain2</title>
<polygon fill="none" stroke="black" points="293.88,-200.12 236.62,-200.12 236.62,-164.12 299.88,-164.12 299.88,-194.12 293.88,-200.12"/>
<polyline fill="none" stroke="black" points="293.88,-200.12 293.88,-194.12"/>
<polyline fill="none" stroke="black" points="299.88,-194.12 293.88,-194.12"/>
<text xml:space="preserve" text-anchor="middle" x="268.25" y="-178.25" font-family="Helvetica,sans-Serif" font-size="10.00">full.backup</text>
</g>
<!-- phys2&#45;&gt;chain2 -->
<g id="edge7" class="edge">
<title>phys2&#45;&gt;chain2</title>
<path fill="none" stroke="black" d="M322.83,-246.02C316.62,-240.62 309.98,-234.51 304.25,-228.5 298.66,-222.63 293.02,-215.96 287.91,-209.57"/>
<polygon fill="black" stroke="black" points="290.72,-207.48 281.82,-201.74 285.19,-211.78 290.72,-207.48"/>
<text xml:space="preserve" text-anchor="middle" x="338.75" y="-219.95" font-family="Helvetica,sans-Serif" font-size="9.00">chain (one store)</text>
</g>
<!-- note -->
<g id="node12" class="node">
<title>note</title>
<text xml:space="preserve" text-anchor="middle" x="419.25" y="-188.2" font-family="Helvetica,sans-Serif" font-size="9.00">latest backup for the alias =</text>
<text xml:space="preserve" text-anchor="middle" x="419.25" y="-178.45" font-family="Helvetica,sans-Serif" font-size="9.00">newest artifact across P1, P2 (= P2&#39;s head).</text>
<text xml:space="preserve" text-anchor="middle" x="419.25" y="-168.7" font-family="Helvetica,sans-Serif" font-size="9.00">Restore seeds a NEW physical &#45;&gt; fresh prefix.</text>
</g>
<!-- phys2&#45;&gt;note -->
<!-- chain1b -->
<g id="node7" class="node">
<title>chain1b</title>
<polygon fill="none" stroke="black" points="75.25,-117.75 17.25,-117.75 17.25,-81.75 81.25,-81.75 81.25,-111.75 75.25,-117.75"/>
<polyline fill="none" stroke="black" points="75.25,-117.75 75.25,-111.75"/>
<polyline fill="none" stroke="black" points="81.25,-111.75 75.25,-111.75"/>
<text xml:space="preserve" text-anchor="middle" x="49.25" y="-95.88" font-family="Helvetica,sans-Serif" font-size="10.00">diff.backup</text>
</g>
<!-- chain1&#45;&gt;chain1b -->
<g id="edge6" class="edge">
<title>chain1&#45;&gt;chain1b</title>
<path fill="none" stroke="black" d="M49.25,-163.68C49.25,-153.68 49.25,-140.87 49.25,-129.42"/>
<polygon fill="black" stroke="black" points="52.75,-129.67 49.25,-119.67 45.75,-129.67 52.75,-129.67"/>
<text xml:space="preserve" text-anchor="middle" x="60.5" y="-136.95" font-family="Helvetica,sans-Serif" font-size="9.00">chain</text>
</g>
<!-- chain2b -->
<g id="node9" class="node">
<title>chain2b</title>
<polygon fill="none" stroke="black" points="294.25,-117.75 236.25,-117.75 236.25,-81.75 300.25,-81.75 300.25,-111.75 294.25,-117.75"/>
<polyline fill="none" stroke="black" points="294.25,-117.75 294.25,-111.75"/>
<polyline fill="none" stroke="black" points="300.25,-111.75 294.25,-111.75"/>
<text xml:space="preserve" text-anchor="middle" x="268.25" y="-95.88" font-family="Helvetica,sans-Serif" font-size="10.00">diff.backup</text>
</g>
<!-- chain2&#45;&gt;chain2b -->
<g id="edge8" class="edge">
<title>chain2&#45;&gt;chain2b</title>
<path fill="none" stroke="black" d="M268.25,-163.68C268.25,-153.68 268.25,-140.87 268.25,-129.42"/>
<polygon fill="black" stroke="black" points="271.75,-129.67 268.25,-119.67 264.75,-129.67 271.75,-129.67"/>
<text xml:space="preserve" text-anchor="middle" x="302.75" y="-136.95" font-family="Helvetica,sans-Serif" font-size="9.00">chain (one store)</text>
</g>
<!-- chain2c -->
<g id="node10" class="node">
<title>chain2c</title>
<polygon fill="#fff3cc" stroke="black" points="309.25,-36 221.25,-36 221.25,0 315.25,0 315.25,-30 309.25,-36"/>
<polyline fill="none" stroke="black" points="309.25,-36 309.25,-30"/>
<polyline fill="none" stroke="black" points="315.25,-30 309.25,-30"/>
<text xml:space="preserve" text-anchor="middle" x="268.25" y="-14.12" font-family="Helvetica,sans-Serif" font-size="10.00">diff.backup (head)</text>
</g>
<!-- chain2b&#45;&gt;chain2c -->
<g id="edge9" class="edge">
<title>chain2b&#45;&gt;chain2c</title>
<path fill="none" stroke="black" d="M268.25,-81.45C268.25,-71.52 268.25,-58.81 268.25,-47.45"/>
<polygon fill="black" stroke="black" points="271.75,-47.78 268.25,-37.78 264.75,-47.78 271.75,-47.78"/>
<text xml:space="preserve" text-anchor="middle" x="302.75" y="-55.2" font-family="Helvetica,sans-Serif" font-size="9.00">chain (one store)</text>
</g>
<!-- alias -->
<g id="node11" class="node">
<title>alias</title>
<path fill="#ffe0cc" stroke="black" d="M206,-282.5C206,-282.5 128.5,-282.5 128.5,-282.5 122.5,-282.5 116.5,-276.5 116.5,-270.5 116.5,-270.5 116.5,-258.5 116.5,-258.5 116.5,-252.5 122.5,-246.5 128.5,-246.5 128.5,-246.5 206,-246.5 206,-246.5 212,-246.5 218,-252.5 218,-258.5 218,-258.5 218,-270.5 218,-270.5 218,-276.5 212,-282.5 206,-282.5"/>
<text xml:space="preserve" text-anchor="middle" x="167.25" y="-260.62" font-family="Helvetica,sans-Serif" font-size="10.00">ALIAS acme&#45;orders</text>
</g>
<!-- alias&#45;&gt;phys2 -->
<g id="edge10" class="edge">
<title>alias&#45;&gt;phys2</title>
<path fill="none" stroke="#cc6600" stroke-width="2" d="M218.45,-264.5C237.05,-264.5 258.35,-264.5 278.07,-264.5"/>
<polygon fill="#cc6600" stroke="#cc6600" stroke-width="2" points="276.43,-268 286.43,-264.5 276.43,-261 276.43,-268"/>
<text xml:space="preserve" text-anchor="middle" x="253.88" y="-268.7" font-family="Helvetica,sans-Serif" font-size="9.00">current target</text>
</g>
</g>
</svg>
